<svg xmlns="http://www.w3.org/2000/svg" width="1200" height="800" viewBox="0 0 1200 800" fill="none">
  <defs>
    <marker id="a" markerWidth="12" markerHeight="12" refX="10" refY="6" orient="auto">
      <path d="M1 1L11 6L1 11" stroke="#1D1D1D" stroke-width="2.5" fill="none"/>
    </marker>
  </defs>
  <rect width="1200" height="800" fill="#F7F3E8"/>
  <path d="M0 100H1200M0 200H1200M0 300H1200M0 400H1200M0 500H1200M0 600H1200M0 700H1200" stroke="#E7DFCC"/>
  <text x="92" y="78" fill="#1D1D1D" font-size="30" font-family="IBM Plex Mono, monospace">CHARGING MODULE SKETCH</text>
  <path d="M92 92H1088" stroke="#1D1D1D" stroke-width="3"/>

  <rect x="108" y="228" width="252" height="170" rx="16" fill="#FFFDF7" stroke="#1D1D1D" stroke-width="3"/>
  <rect x="396" y="228" width="252" height="170" rx="16" fill="#FFFDF7" stroke="#1D1D1D" stroke-width="3"/>
  <rect x="684" y="228" width="252" height="170" rx="16" fill="#FFFDF7" stroke="#1D1D1D" stroke-width="3"/>

  <text x="146" y="288" fill="#1D1D1D" font-size="22" font-family="IBM Plex Mono, monospace">BASE UNIT</text>
  <text x="434" y="288" fill="#1D1D1D" font-size="22" font-family="IBM Plex Mono, monospace">CHARGE PAD</text>
  <text x="722" y="288" fill="#1D1D1D" font-size="22" font-family="IBM Plex Mono, monospace">ADD-ON</text>

  <circle cx="250" cy="338" r="20" fill="none" stroke="#3959D7" stroke-width="3"/>
  <circle cx="538" cy="338" r="20" fill="none" stroke="#3959D7" stroke-width="3"/>
  <circle cx="826" cy="338" r="20" fill="none" stroke="#3959D7" stroke-width="3"/>

  <path d="M360 314H388" stroke="#1D1D1D" stroke-width="3" marker-end="url(#a)"/>
  <path d="M648 314H676" stroke="#1D1D1D" stroke-width="3" marker-end="url(#a)"/>

  <rect x="108" y="470" width="828" height="222" rx="16" fill="#FFFDF7" stroke="#1D1D1D" stroke-width="3"/>
  <text x="140" y="518" fill="#1D1D1D" font-size="23" font-family="IBM Plex Mono, monospace">DFM CHECKS</text>
  <text x="140" y="552" fill="#1D1D1D" font-size="19" font-family="IBM Plex Mono, monospace">- Connector stack-up and thermal clearance</text>
  <text x="140" y="584" fill="#1D1D1D" font-size="19" font-family="IBM Plex Mono, monospace">- Magnet alignment tolerance and assembly repeatability</text>
  <text x="140" y="616" fill="#1D1D1D" font-size="19" font-family="IBM Plex Mono, monospace">- Fixture and EOL test flow before pilot</text>

  <rect x="964" y="470" width="128" height="222" rx="16" fill="#FFFDF7" stroke="#1D1D1D" stroke-width="3"/>
  <text x="986" y="518" fill="#E54747" font-size="20" font-family="IBM Plex Mono, monospace">NOTE</text>
  <text x="980" y="552" fill="#1D1D1D" font-size="18" font-family="IBM Plex Mono, monospace">Keep</text>
  <text x="980" y="580" fill="#1D1D1D" font-size="18" font-family="IBM Plex Mono, monospace">modular</text>
  <text x="980" y="608" fill="#1D1D1D" font-size="18" font-family="IBM Plex Mono, monospace">for</text>
  <text x="980" y="636" fill="#1D1D1D" font-size="18" font-family="IBM Plex Mono, monospace">factory</text>
</svg>
