<svg xmlns="http://www.w3.org/2000/svg" width="1200" height="720" viewBox="0 0 1200 720" fill="none">
  <defs>
    <marker id="arrow" markerWidth="12" markerHeight="12" refX="10" refY="6" orient="auto">
      <path d="M1 1L11 6L1 11" stroke="#1D1D1D" stroke-width="2.5" fill="none" stroke-linecap="round"/>
    </marker>
  </defs>
  <rect width="1200" height="720" fill="#F7F3E8"/>
  <path d="M0 92H1200M0 184H1200M0 276H1200M0 368H1200M0 460H1200M0 552H1200M0 644H1200" stroke="#E7DFCC"/>
  <path d="M100 86H1100" stroke="#1D1D1D" stroke-width="3" stroke-linecap="round"/>
  <text x="105" y="72" fill="#1D1D1D" font-size="30" font-family="IBM Plex Mono, monospace">ENGINEERING OPERATING MAP</text>

  <rect x="88" y="170" width="240" height="150" rx="16" fill="#FFFDF7" stroke="#1D1D1D" stroke-width="3"/>
  <rect x="360" y="170" width="240" height="150" rx="16" fill="#FFFDF7" stroke="#1D1D1D" stroke-width="3"/>
  <rect x="632" y="170" width="240" height="150" rx="16" fill="#FFFDF7" stroke="#1D1D1D" stroke-width="3"/>
  <rect x="904" y="170" width="208" height="150" rx="16" fill="#FFFDF7" stroke="#1D1D1D" stroke-width="3"/>

  <text x="120" y="222" fill="#1D1D1D" font-size="26" font-family="IBM Plex Mono, monospace">STUDIO</text>
  <text x="120" y="257" fill="#3959D7" font-size="20" font-family="IBM Plex Mono, monospace">Concept Pack</text>

  <text x="390" y="222" fill="#1D1D1D" font-size="26" font-family="IBM Plex Mono, monospace">ENGINEERING</text>
  <text x="390" y="257" fill="#3959D7" font-size="20" font-family="IBM Plex Mono, monospace">DFM + CAD</text>

  <text x="662" y="222" fill="#1D1D1D" font-size="24" font-family="IBM Plex Mono, monospace">FACTORY NET</text>
  <text x="662" y="257" fill="#3959D7" font-size="20" font-family="IBM Plex Mono, monospace">Dongguan Match</text>

  <text x="936" y="222" fill="#1D1D1D" font-size="24" font-family="IBM Plex Mono, monospace">QA RAMP</text>
  <text x="936" y="257" fill="#3959D7" font-size="20" font-family="IBM Plex Mono, monospace">Pilot Gate</text>

  <path d="M328 245H352" stroke="#1D1D1D" stroke-width="3" marker-end="url(#arrow)"/>
  <path d="M600 245H624" stroke="#1D1D1D" stroke-width="3" marker-end="url(#arrow)"/>
  <path d="M872 245H896" stroke="#1D1D1D" stroke-width="3" marker-end="url(#arrow)"/>

  <rect x="92" y="392" width="490" height="210" rx="16" fill="#FFFDF7" stroke="#1D1D1D" stroke-width="3"/>
  <text x="120" y="436" fill="#1D1D1D" font-size="24" font-family="IBM Plex Mono, monospace">WHY THIS WORKS</text>
  <text x="120" y="473" fill="#1D1D1D" font-size="20" font-family="IBM Plex Mono, monospace">1) One engineering window for studio teams</text>
  <text x="120" y="505" fill="#1D1D1D" font-size="20" font-family="IBM Plex Mono, monospace">2) Scalable factory routing in Dongguan</text>
  <text x="120" y="537" fill="#1D1D1D" font-size="20" font-family="IBM Plex Mono, monospace">3) Stage gates: EVT / DVT / PVT</text>
  <text x="120" y="569" fill="#1D1D1D" font-size="20" font-family="IBM Plex Mono, monospace">4) White-label and non-circumvention</text>

  <rect x="622" y="392" width="486" height="210" rx="16" fill="#FFFDF7" stroke="#1D1D1D" stroke-width="3"/>
  <text x="650" y="436" fill="#1D1D1D" font-size="24" font-family="IBM Plex Mono, monospace">CAPACITY NOTE</text>
  <text x="650" y="473" fill="#1D1D1D" font-size="20" font-family="IBM Plex Mono, monospace">Not one fixed line.</text>
  <text x="650" y="505" fill="#1D1D1D" font-size="20" font-family="IBM Plex Mono, monospace">Managed partner factories by process.</text>
  <text x="650" y="537" fill="#1D1D1D" font-size="20" font-family="IBM Plex Mono, monospace">Backup routing when risk appears.</text>
  <path d="M944 560C975 520 1020 510 1060 534" stroke="#E54747" stroke-width="4" stroke-linecap="round"/>
</svg>
